<svg width="140" height="20" viewBox="0 0 140 20" fill="none" xmlns="http://www.w3.org/2000/svg">
<g clip-path="url(#clip0_76_46)">
<path d="M24.7841 6.86111V8.86812C25.7876 7.32786 26.9544 6.69775 28.7981 6.69775C29.1015 6.69775 29.1948 6.69775 29.6382 6.72109V10.8518C28.9381 10.5017 28.5414 10.4084 27.7946 10.4084C25.7642 10.4084 24.7607 11.5752 24.7607 13.8389V19.0665H20.4434V6.86111H24.7607H24.7841Z" fill="white"/>
<path d="M40.513 10.8285C39.6728 10.2684 39.0661 10.0351 38.2726 10.0351C36.569 10.0351 35.3088 11.2719 35.3088 12.9522C35.3088 14.7259 36.5223 15.9394 38.3426 15.9394C39.1361 15.9394 39.8362 15.6593 40.5363 15.1226V18.7865C39.4395 19.2766 38.5993 19.4633 37.4791 19.4633C33.7452 19.4633 30.8047 16.6395 30.8047 13.0456C30.8047 9.24161 33.6985 6.46448 37.6658 6.46448C38.7393 6.46448 39.5561 6.65118 40.5363 7.14126V10.8052L40.513 10.8285Z" fill="white"/>
<path d="M47.3047 13.7924C47.3047 15.2859 48.0281 16.0327 49.5217 16.0327C50.9686 16.0327 51.7154 15.2859 51.7154 13.7924V6.86121H56.0328V14.6325C56.0328 17.8764 53.7691 19.6033 49.5217 19.6033C45.251 19.6033 42.9873 17.8764 42.9873 14.6325V6.86121H47.3047V13.7924Z" fill="white"/>
<path d="M66.371 10.0351C65.5542 9.63836 64.784 9.45166 64.0139 9.45166C63.2671 9.45166 62.6837 9.82506 62.6837 10.3151C62.6837 10.8752 62.8937 10.9919 64.6207 11.3653C67.0711 11.8554 68.1913 13.0223 68.1913 15.0059C68.1913 17.7597 65.9042 19.5567 62.357 19.5567C60.6534 19.5567 59.0664 19.0899 57.4795 18.1564L59.0431 15.0993C60.1866 15.8461 61.4935 16.3361 62.497 16.3361C63.2905 16.3361 63.8506 15.9394 63.8506 15.4027C63.8506 14.7726 63.5238 14.5859 62.0069 14.2591C59.3698 13.7224 58.413 12.8122 58.413 10.8052C58.413 8.12144 60.5367 6.44116 63.8739 6.44116C65.3675 6.44116 66.4643 6.6512 67.8179 7.23463L66.371 10.0351Z" fill="white"/>
<path d="M9.89498 14.8192C7.09452 14.8192 4.8308 12.5555 4.8308 9.75504C4.8308 8.68153 5.15753 7.70137 5.74096 6.88456C5.99767 6.51117 6.30105 6.16111 6.65111 5.88106C7.53792 5.15761 8.65811 4.7142 9.89498 4.7142C10.105 4.7142 10.3151 4.7142 10.5251 4.76088V0.350141C10.1984 0.326804 9.87164 0.303467 9.54492 0.303467C4.24737 0.303467 0 4.50417 0 9.77838C0 15.0759 4.2007 19.1833 9.63827 19.1833C9.94166 19.1833 10.245 19.1833 10.5251 19.1366V14.7725C10.3151 14.7959 10.105 14.8192 9.89498 14.8192Z" fill="white"/>
<path d="M17.9704 2.42707C17.9704 3.78063 16.8968 4.85414 15.5433 4.85414C14.1897 4.85414 13.1162 3.78063 13.1162 2.42707C13.1162 1.07351 14.1897 0 15.5433 0C16.8968 0 17.9704 1.07351 17.9704 2.42707Z" fill="white"/>
<path d="M17.6895 19.0898H13.3721V8.70471H17.6895V19.0898Z" fill="white"/>
<path d="M82.0075 15.5192C81.5874 15.846 81.004 16.0093 80.2805 16.0093C79.5571 16.0093 79.4871 15.9393 79.137 15.776C78.7869 15.6359 78.5069 15.4259 78.2735 15.1692C78.0401 14.9125 77.8534 14.6091 77.7134 14.259C77.5734 13.909 77.5267 13.5122 77.5267 13.0922C77.5267 12.6721 77.5967 12.2754 77.7134 11.9253C77.8534 11.5753 78.0401 11.2485 78.2735 10.9918C78.5302 10.7351 78.8103 10.5251 79.137 10.3851C79.4637 10.245 79.8371 10.1517 80.2572 10.1517C81.424 10.1517 82.2642 10.7351 82.7543 11.902L85.4147 9.42823C84.9246 8.51808 84.2478 7.8413 83.4077 7.37456C82.5676 6.90781 81.4707 6.67444 80.1405 6.67444C78.8103 6.67444 78.3669 6.8378 77.5734 7.14118C76.8033 7.44457 76.1265 7.88797 75.5431 8.4714C74.983 9.0315 74.5396 9.70828 74.2128 10.5017C73.8861 11.2952 73.7461 12.1587 73.7461 13.0922C73.7461 14.0257 73.9095 14.8658 74.2128 15.6593C74.5162 16.4527 74.9596 17.1295 75.5431 17.6896C76.1032 18.2497 76.7799 18.6931 77.5734 19.0198C78.3435 19.3232 79.207 19.4866 80.1405 19.4866C81.074 19.4866 81.4941 19.3932 82.0541 19.2532C82.6376 19.0898 83.151 18.8565 83.5944 18.5764C84.0611 18.2964 84.4579 17.9697 84.7846 17.5729C85.1347 17.1762 85.4147 16.7561 85.6714 16.2894L82.8943 14.2824C82.7076 14.7725 82.3809 15.1925 81.9608 15.5192H82.0075ZM82.8009 8.6581C83.1743 8.6581 83.4777 8.96149 83.4777 9.33488C83.4777 9.70828 83.1743 10.0117 82.8009 10.0117C82.4275 10.0117 82.1242 9.70828 82.1242 9.33488C82.1242 8.96149 82.4275 8.6581 82.8009 8.6581ZM81.0506 7.98132C81.424 7.98132 81.7274 8.28471 81.7274 8.6581C81.7274 9.0315 81.424 9.33488 81.0506 9.33488C80.6772 9.33488 80.3739 9.0315 80.3739 8.6581C80.3739 8.28471 80.6772 7.98132 81.0506 7.98132ZM79.207 7.95799C79.5804 7.95799 79.8838 8.26137 79.8838 8.63476C79.8838 9.00816 79.5804 9.31154 79.207 9.31154C78.8336 9.31154 78.5302 9.00816 78.5302 8.63476C78.5302 8.26137 78.8336 7.95799 79.207 7.95799ZM77.48 8.61143C77.8534 8.61143 78.1568 8.91481 78.1568 9.28821C78.1568 9.6616 77.8534 9.96499 77.48 9.96499C77.1067 9.96499 76.8033 9.6616 76.8033 9.28821C76.8033 8.91481 77.1067 8.61143 77.48 8.61143ZM76.2432 9.98832C76.6166 9.98832 76.92 10.2917 76.92 10.6651C76.92 11.0385 76.6166 11.3419 76.2432 11.3419C75.8698 11.3419 75.5664 11.0385 75.5664 10.6651C75.5664 10.2917 75.8698 9.98832 76.2432 9.98832ZM75.7064 11.762C76.0798 11.762 76.3832 12.0653 76.3832 12.4387C76.3832 12.8121 76.0798 13.1155 75.7064 13.1155C75.333 13.1155 75.0296 12.8121 75.0296 12.4387C75.0296 12.0653 75.333 11.762 75.7064 11.762ZM75.123 14.2824C75.123 13.909 75.4264 13.6056 75.7998 13.6056C76.1732 13.6056 76.4766 13.909 76.4766 14.2824C76.4766 14.6558 76.1732 14.9592 75.7998 14.9592C75.4264 14.9592 75.123 14.6558 75.123 14.2824ZM76.5232 16.6161C76.1498 16.6161 75.8464 16.3127 75.8464 15.9393C75.8464 15.5659 76.1498 15.2625 76.5232 15.2625C76.8966 15.2625 77.2 15.5659 77.2 15.9393C77.2 16.3127 76.8966 16.6161 76.5232 16.6161ZM77.9001 17.8296C77.5267 17.8296 77.2233 17.5262 77.2233 17.1529C77.2233 16.7795 77.5267 16.4761 77.9001 16.4761C78.2735 16.4761 78.5769 16.7795 78.5769 17.1529C78.5769 17.5262 78.2735 17.8296 77.9001 17.8296ZM79.6737 18.3897C79.3004 18.3897 78.997 18.0863 78.997 17.7129C78.997 17.3395 79.3004 17.0362 79.6737 17.0362C80.0471 17.0362 80.3505 17.3395 80.3505 17.7129C80.3505 18.0863 80.0471 18.3897 79.6737 18.3897ZM81.4941 18.273C81.1207 18.273 80.8173 17.9697 80.8173 17.5963C80.8173 17.2229 81.1207 16.9195 81.4941 16.9195C81.8674 16.9195 82.1708 17.2229 82.1708 17.5963C82.1708 17.9697 81.8674 18.273 81.4941 18.273ZM83.8278 16.8028C83.8278 17.1762 83.5244 17.4796 83.151 17.4796C82.7776 17.4796 82.4742 17.1762 82.4742 16.8028C82.4742 16.4294 82.7776 16.126 83.151 16.126C83.5244 16.126 83.8278 16.4294 83.8278 16.8028Z" fill="white"/>
<path d="M90.0578 6.93115L85.7871 19.2532H89.8478L90.2679 17.9697H94.1652L94.5619 19.2532H98.5992L94.3052 6.93115H90.0812H90.0578ZM93.185 8.2147C93.5584 8.2147 93.8618 8.51808 93.8618 8.89148C93.8618 9.26487 93.5584 9.56826 93.185 9.56826C92.8116 9.56826 92.5082 9.26487 92.5082 8.89148C92.5082 8.51808 92.8116 8.2147 93.185 8.2147ZM93.2317 14.8891H91.1313L92.1815 11.2952L93.2317 14.8891ZM91.1547 8.2147C91.5281 8.2147 91.8314 8.51808 91.8314 8.89148C91.8314 9.26487 91.5281 9.56826 91.1547 9.56826C90.7813 9.56826 90.4779 9.26487 90.4779 8.89148C90.4779 8.51808 90.7813 8.2147 91.1547 8.2147ZM90.5712 10.0583C90.9446 10.0583 91.248 10.3617 91.248 10.7351C91.248 11.1085 90.9446 11.4119 90.5712 11.4119C90.1978 11.4119 89.8945 11.1085 89.8945 10.7351C89.8945 10.3617 90.1978 10.0583 90.5712 10.0583ZM88.1442 18.6464C87.7708 18.6464 87.4674 18.3431 87.4674 17.9697C87.4674 17.5963 87.7708 17.2929 88.1442 17.2929C88.5176 17.2929 88.8209 17.5963 88.8209 17.9697C88.8209 18.3431 88.5176 18.6464 88.1442 18.6464ZM88.7743 16.9195C88.4009 16.9195 88.0975 16.6161 88.0975 16.2427C88.0975 15.8693 88.4009 15.5659 88.7743 15.5659C89.1477 15.5659 89.451 15.8693 89.451 16.2427C89.451 16.6161 89.1477 16.9195 88.7743 16.9195ZM89.311 15.0758C88.9376 15.0758 88.6342 14.7725 88.6342 14.3991C88.6342 14.0257 88.9376 13.7223 89.311 13.7223C89.6844 13.7223 89.9878 14.0257 89.9878 14.3991C89.9878 14.7725 89.6844 15.0758 89.311 15.0758ZM89.9411 13.2322C89.5677 13.2322 89.2644 12.9288 89.2644 12.5554C89.2644 12.182 89.5677 11.8786 89.9411 11.8786C90.3145 11.8786 90.6179 12.182 90.6179 12.5554C90.6179 12.9288 90.3145 13.2322 89.9411 13.2322ZM91.108 17.0128C90.7346 17.0128 90.4312 16.7094 90.4312 16.3361C90.4312 15.9627 90.7346 15.6593 91.108 15.6593C91.4814 15.6593 91.7848 15.9627 91.7848 16.3361C91.7848 16.7094 91.4814 17.0128 91.108 17.0128ZM93.255 17.0128C92.8816 17.0128 92.5782 16.7094 92.5782 16.3361C92.5782 15.9627 92.8816 15.6593 93.255 15.6593C93.6284 15.6593 93.9318 15.9627 93.9318 16.3361C93.9318 16.7094 93.6284 17.0128 93.255 17.0128ZM96.8256 17.9697C96.8256 18.3431 96.5222 18.6464 96.1488 18.6464C95.7754 18.6464 95.4721 18.3431 95.4721 17.9697C95.4721 17.5963 95.7754 17.2929 96.1488 17.2929C96.5222 17.2929 96.8256 17.5963 96.8256 17.9697ZM96.1955 16.266C96.1955 16.6394 95.8921 16.9428 95.5187 16.9428C95.1453 16.9428 94.8419 16.6394 94.8419 16.266C94.8419 15.8926 95.1453 15.5893 95.5187 15.5893C95.8921 15.5893 96.1955 15.8926 96.1955 16.266ZM95.6821 14.4224C95.6821 14.7958 95.3787 15.0992 95.0053 15.0992C94.6319 15.0992 94.3285 14.7958 94.3285 14.4224C94.3285 14.049 94.6319 13.7456 95.0053 13.7456C95.3787 13.7456 95.6821 14.049 95.6821 14.4224ZM95.052 12.5554C95.052 12.9288 94.7486 13.2322 94.3752 13.2322C94.0018 13.2322 93.6984 12.9288 93.6984 12.5554C93.6984 12.182 94.0018 11.8786 94.3752 11.8786C94.7486 11.8786 95.052 12.182 95.052 12.5554ZM93.7451 11.3886C93.3717 11.3886 93.0683 11.0852 93.0683 10.7118C93.0683 10.3384 93.3717 10.035 93.7451 10.035C94.1185 10.035 94.4219 10.3384 94.4219 10.7118C94.4219 11.0852 94.1185 11.3886 93.7451 11.3886Z" fill="white"/>
<path d="M109.172 19.2532H113.023V6.93115H109.172V19.2532ZM111.109 7.77129C111.482 7.77129 111.786 8.07468 111.786 8.44807C111.786 8.82147 111.482 9.12485 111.109 9.12485C110.735 9.12485 110.432 8.82147 110.432 8.44807C110.432 8.07468 110.735 7.77129 111.109 7.77129ZM111.109 9.66161C111.482 9.66161 111.786 9.96499 111.786 10.3384C111.786 10.7118 111.482 11.0152 111.109 11.0152C110.735 11.0152 110.432 10.7118 110.432 10.3384C110.432 9.96499 110.735 9.66161 111.109 9.66161ZM111.109 11.5519C111.482 11.5519 111.786 11.8553 111.786 12.2287C111.786 12.6021 111.482 12.9055 111.109 12.9055C110.735 12.9055 110.432 12.6021 110.432 12.2287C110.432 11.8553 110.735 11.5519 111.109 11.5519ZM111.109 13.4189C111.482 13.4189 111.786 13.7223 111.786 14.0957C111.786 14.4691 111.482 14.7725 111.109 14.7725C110.735 14.7725 110.432 14.4691 110.432 14.0957C110.432 13.7223 110.735 13.4189 111.109 13.4189ZM111.109 15.3092C111.482 15.3092 111.786 15.6126 111.786 15.986C111.786 16.3594 111.482 16.6628 111.109 16.6628C110.735 16.6628 110.432 16.3594 110.432 15.986C110.432 15.6126 110.735 15.3092 111.109 15.3092ZM111.109 17.1762C111.482 17.1762 111.786 17.4796 111.786 17.853C111.786 18.2264 111.482 18.5298 111.109 18.5298C110.735 18.5298 110.432 18.2264 110.432 17.853C110.432 17.4796 110.735 17.1762 111.109 17.1762Z" fill="white"/>
<path d="M122.007 13.0922L118.273 6.90784H114.469V19.2299H118.249V13.3022L122.217 19.2299H125.717V6.93117H121.983V13.1155L122.007 13.0922ZM116.359 18.5064C115.986 18.5064 115.682 18.2031 115.682 17.8297C115.682 17.4563 115.986 17.1529 116.359 17.1529C116.732 17.1529 117.036 17.4563 117.036 17.8297C117.036 18.2031 116.732 18.5064 116.359 18.5064ZM116.359 16.6395C115.986 16.6395 115.682 16.3361 115.682 15.9627C115.682 15.5893 115.986 15.2859 116.359 15.2859C116.732 15.2859 117.036 15.5893 117.036 15.9627C117.036 16.3361 116.732 16.6395 116.359 16.6395ZM116.359 14.7491C115.986 14.7491 115.682 14.4458 115.682 14.0724C115.682 13.699 115.986 13.3956 116.359 13.3956C116.732 13.3956 117.036 13.699 117.036 14.0724C117.036 14.4458 116.732 14.7491 116.359 14.7491ZM116.359 12.8822C115.986 12.8822 115.682 12.5788 115.682 12.2054C115.682 11.832 115.986 11.5286 116.359 11.5286C116.732 11.5286 117.036 11.832 117.036 12.2054C117.036 12.5788 116.732 12.8822 116.359 12.8822ZM116.359 10.9919C115.986 10.9919 115.682 10.6885 115.682 10.3151C115.682 9.94168 115.986 9.63829 116.359 9.63829C116.732 9.63829 117.036 9.94168 117.036 10.3151C117.036 10.6885 116.732 10.9919 116.359 10.9919ZM116.359 9.12487C115.986 9.12487 115.682 8.82149 115.682 8.44809C115.682 8.0747 115.986 7.77131 116.359 7.77131C116.732 7.77131 117.036 8.0747 117.036 8.44809C117.036 8.82149 116.732 9.12487 116.359 9.12487ZM118.086 10.5018C117.853 10.5018 117.643 10.3851 117.526 10.1984C117.433 10.0584 117.386 9.87166 117.433 9.68497C117.479 9.52161 117.573 9.35825 117.713 9.2649C117.829 9.19488 117.946 9.14821 118.063 9.14821C118.296 9.14821 118.506 9.2649 118.623 9.45159C118.716 9.59162 118.763 9.77832 118.716 9.96501C118.669 10.1284 118.576 10.2917 118.436 10.3851C118.319 10.4551 118.203 10.5018 118.086 10.5018ZM118.529 11.7853C118.319 11.4819 118.413 11.0619 118.739 10.8518C118.856 10.7818 118.973 10.7351 119.09 10.7351C119.323 10.7351 119.533 10.8518 119.65 11.0385C119.743 11.1785 119.79 11.3652 119.743 11.5519C119.696 11.7153 119.603 11.8787 119.463 11.972C119.346 12.042 119.23 12.0887 119.113 12.0887C118.879 12.0887 118.669 11.972 118.553 11.7853H118.529ZM119.556 13.3722C119.346 13.0689 119.44 12.6488 119.766 12.4388C119.883 12.3687 120 12.3221 120.116 12.3221C120.35 12.3221 120.56 12.4388 120.676 12.6255C120.886 12.9288 120.793 13.3489 120.466 13.5589C120.35 13.629 120.233 13.6756 120.116 13.6756C119.883 13.6756 119.673 13.5589 119.556 13.3722ZM120.56 14.9358C120.466 14.7958 120.42 14.6091 120.466 14.4224C120.513 14.2591 120.606 14.0957 120.746 14.0024C120.863 13.9323 120.98 13.8857 121.097 13.8857C121.33 13.8857 121.54 14.0024 121.657 14.1891C121.867 14.4924 121.773 14.9125 121.447 15.1225C121.33 15.1926 121.213 15.2392 121.097 15.2392C120.863 15.2392 120.653 15.1225 120.536 14.9358H120.56ZM123.874 7.77131C124.247 7.77131 124.55 8.0747 124.55 8.44809C124.55 8.82149 124.247 9.12487 123.874 9.12487C123.5 9.12487 123.197 8.82149 123.197 8.44809C123.197 8.0747 123.5 7.77131 123.874 7.77131ZM123.874 9.66163C124.247 9.66163 124.55 9.96501 124.55 10.3384C124.55 10.7118 124.247 11.0152 123.874 11.0152C123.5 11.0152 123.197 10.7118 123.197 10.3384C123.197 9.96501 123.5 9.66163 123.874 9.66163ZM123.874 11.5519C124.247 11.5519 124.55 11.8553 124.55 12.2287C124.55 12.6021 124.247 12.9055 123.874 12.9055C123.5 12.9055 123.197 12.6021 123.197 12.2287C123.197 11.8553 123.5 11.5519 123.874 11.5519ZM123.874 13.4189C124.247 13.4189 124.55 13.7223 124.55 14.0957C124.55 14.4691 124.247 14.7725 123.874 14.7725C123.5 14.7725 123.197 14.4691 123.197 14.0957C123.197 13.7223 123.5 13.4189 123.874 13.4189ZM123.874 15.3092C124.247 15.3092 124.55 15.6126 124.55 15.986C124.55 16.3594 124.247 16.6628 123.874 16.6628C123.5 16.6628 123.197 16.3594 123.197 15.986C123.197 15.6126 123.5 15.3092 123.874 15.3092ZM123.874 17.1762C124.247 17.1762 124.55 17.4796 124.55 17.853C124.55 18.2264 124.247 18.5298 123.874 18.5298C123.5 18.5298 123.197 18.2264 123.197 17.853C123.197 17.4796 123.5 17.1762 123.874 17.1762ZM122.707 15.7993C122.8 15.9393 122.847 16.126 122.8 16.3127C122.753 16.4761 122.66 16.6395 122.52 16.7328C122.403 16.8028 122.287 16.8495 122.17 16.8495C121.937 16.8495 121.727 16.7328 121.61 16.5461C121.4 16.2427 121.493 15.8227 121.82 15.6126C121.937 15.5426 122.053 15.4959 122.17 15.4959C122.403 15.4959 122.613 15.6126 122.73 15.7993H122.707Z" fill="white"/>
<path d="M139.487 10.5251C139.16 9.73161 138.694 9.05484 138.11 8.49474C137.527 7.93465 136.827 7.49124 136.033 7.16452C135.24 6.8378 134.4 6.67444 133.466 6.67444C132.533 6.67444 131.669 6.8378 130.876 7.14118C130.082 7.44457 129.382 7.88797 128.799 8.4714C128.215 9.0315 127.772 9.70828 127.445 10.5017C127.118 11.2952 126.955 12.1587 126.955 13.0922C126.955 14.0257 127.118 14.8658 127.445 15.6593C127.772 16.4294 128.239 17.1062 128.822 17.6896C129.405 18.2497 130.082 18.6931 130.876 19.0198C131.669 19.3466 132.533 19.5099 133.443 19.5099C134.353 19.5099 135.216 19.3466 136.01 19.0198C136.803 18.6931 137.504 18.2497 138.087 17.6896C138.67 17.1295 139.137 16.4527 139.464 15.6593C139.791 14.8891 139.954 14.0257 139.954 13.0922C139.954 12.1587 139.791 11.3185 139.464 10.5251H139.487ZM137.597 9.94165C137.97 9.94165 138.274 10.245 138.274 10.6184C138.274 10.9918 137.97 11.2952 137.597 11.2952C137.223 11.2952 136.92 10.9918 136.92 10.6184C136.92 10.245 137.223 9.94165 137.597 9.94165ZM136.36 8.54142C136.733 8.54142 137.037 8.8448 137.037 9.2182C137.037 9.59159 136.733 9.89498 136.36 9.89498C135.987 9.89498 135.683 9.59159 135.683 9.2182C135.683 8.8448 135.987 8.54142 136.36 8.54142ZM134.656 7.8413C135.03 7.8413 135.333 8.14468 135.333 8.51808C135.333 8.89147 135.03 9.19486 134.656 9.19486C134.283 9.19486 133.98 8.89147 133.98 8.51808C133.98 8.14468 134.283 7.8413 134.656 7.8413ZM132.789 7.77129C133.163 7.77129 133.466 8.07467 133.466 8.44807C133.466 8.82146 133.163 9.12485 132.789 9.12485C132.416 9.12485 132.113 8.82146 132.113 8.44807C132.113 8.07467 132.416 7.77129 132.789 7.77129ZM130.992 8.28471C131.366 8.28471 131.669 8.58809 131.669 8.96149C131.669 9.33488 131.366 9.63827 130.992 9.63827C130.619 9.63827 130.316 9.33488 130.316 8.96149C130.316 8.58809 130.619 8.28471 130.992 8.28471ZM129.616 9.49824C129.989 9.49824 130.292 9.80163 130.292 10.175C130.292 10.5484 129.989 10.8518 129.616 10.8518C129.242 10.8518 128.939 10.5484 128.939 10.175C128.939 9.80163 129.242 9.49824 129.616 9.49824ZM128.985 11.2485C129.359 11.2485 129.662 11.5519 129.662 11.9253C129.662 12.2987 129.359 12.6021 128.985 12.6021C128.612 12.6021 128.309 12.2987 128.309 11.9253C128.309 11.5519 128.612 11.2485 128.985 11.2485ZM128.215 13.7923C128.215 13.4189 128.519 13.1155 128.892 13.1155C129.265 13.1155 129.569 13.4189 129.569 13.7923C129.569 14.1657 129.265 14.4691 128.892 14.4691C128.519 14.4691 128.215 14.1657 128.215 13.7923ZM129.382 16.266C129.009 16.266 128.705 15.9627 128.705 15.5893C128.705 15.2159 129.009 14.9125 129.382 14.9125C129.756 14.9125 130.059 15.2159 130.059 15.5893C130.059 15.9627 129.756 16.266 129.382 16.266ZM130.526 17.7129C130.152 17.7129 129.849 17.4096 129.849 17.0362C129.849 16.6628 130.152 16.3594 130.526 16.3594C130.899 16.3594 131.202 16.6628 131.202 17.0362C131.202 17.4096 130.899 17.7129 130.526 17.7129ZM132.276 18.4131C131.903 18.4131 131.599 18.1097 131.599 17.7363C131.599 17.3629 131.903 17.0595 132.276 17.0595C132.649 17.0595 132.953 17.3629 132.953 17.7363C132.953 18.1097 132.649 18.4131 132.276 18.4131ZM131.529 15.2625C131.039 14.7491 130.806 14.049 130.806 13.0922C130.806 12.1353 131.039 11.4119 131.529 10.8985C132.019 10.3851 132.673 10.1517 133.49 10.1517C134.306 10.1517 134.936 10.4084 135.426 10.9218C135.917 11.4352 136.173 12.1587 136.173 13.0922C136.173 14.0257 135.917 14.7491 135.426 15.2625C134.936 15.776 134.283 16.0093 133.49 16.0093C132.696 16.0093 132.019 15.7526 131.529 15.2625ZM134.19 18.4131C133.816 18.4131 133.513 18.1097 133.513 17.7363C133.513 17.3629 133.816 17.0595 134.19 17.0595C134.563 17.0595 134.866 17.3629 134.866 17.7363C134.866 18.1097 134.563 18.4131 134.19 18.4131ZM135.94 17.9463C135.567 17.9463 135.263 17.6429 135.263 17.2695C135.263 16.8961 135.567 16.5928 135.94 16.5928C136.313 16.5928 136.617 16.8961 136.617 17.2695C136.617 17.6429 136.313 17.9463 135.94 17.9463ZM137.293 16.6861C136.92 16.6861 136.617 16.3827 136.617 16.0093C136.617 15.6359 136.92 15.3325 137.293 15.3325C137.667 15.3325 137.97 15.6359 137.97 16.0093C137.97 16.3827 137.667 16.6861 137.293 16.6861ZM137.994 14.9592C137.62 14.9592 137.317 14.6558 137.317 14.2824C137.317 13.909 137.62 13.6056 137.994 13.6056C138.367 13.6056 138.67 13.909 138.67 14.2824C138.67 14.6558 138.367 14.9592 137.994 14.9592ZM138.087 13.1155C137.714 13.1155 137.41 12.8121 137.41 12.4387C137.41 12.0653 137.714 11.762 138.087 11.762C138.46 11.762 138.764 12.0653 138.764 12.4387C138.764 12.8121 138.46 13.1155 138.087 13.1155Z" fill="white"/>
<path d="M105.111 11.6452L104.294 11.4119C103.757 11.2485 102.964 10.9918 102.964 10.3383C102.964 9.6849 103.711 9.4282 104.224 9.4282C104.738 9.4282 105.648 9.70824 106.255 10.2217L106.348 10.315L107.725 7.65457L107.631 7.60789C106.535 7.00112 105.018 6.58105 103.757 6.58105C101.214 6.58105 99.4401 8.30801 99.4401 10.7818C99.4401 13.2555 100.77 13.7456 102.801 14.329H102.894C103.547 14.539 104.644 14.8424 104.644 15.6126C104.644 16.3827 103.921 16.7327 103.221 16.7327C102.521 16.7327 101.424 16.336 100.467 15.4959L100.374 15.4025L98.9033 18.1563L98.9733 18.203C100.257 19.1131 101.82 19.6032 103.314 19.6032C104.808 19.6032 105.951 19.1832 106.838 18.4364C107.701 17.7129 108.145 16.5694 108.145 15.0758C108.145 12.8354 106.488 12.0653 105.064 11.6452H105.111ZM105.298 7.58456C105.671 7.58456 105.975 7.88794 105.975 8.26133C105.975 8.63473 105.671 8.93811 105.298 8.93811C104.924 8.93811 104.621 8.63473 104.621 8.26133C104.621 7.88794 104.924 7.58456 105.298 7.58456ZM101.82 8.14465C102.194 8.14465 102.497 8.44803 102.497 8.82143C102.497 9.19482 102.194 9.49821 101.82 9.49821C101.447 9.49821 101.144 9.19482 101.144 8.82143C101.144 8.44803 101.447 8.14465 101.82 8.14465ZM100.56 10.525C100.56 10.1516 100.864 9.84827 101.237 9.84827C101.61 9.84827 101.914 10.1516 101.914 10.525C101.914 10.8984 101.61 11.2018 101.237 11.2018C100.864 11.2018 100.56 10.8984 100.56 10.525ZM101.984 12.7888C101.61 12.7888 101.307 12.4854 101.307 12.112C101.307 11.7386 101.61 11.4352 101.984 11.4352C102.357 11.4352 102.661 11.7386 102.661 12.112C102.661 12.4854 102.357 12.7888 101.984 12.7888ZM102.824 8.0513C102.824 7.6779 103.127 7.37452 103.501 7.37452C103.874 7.37452 104.178 7.6779 104.178 8.0513C104.178 8.42469 103.874 8.72808 103.501 8.72808C103.127 8.72808 102.824 8.42469 102.824 8.0513ZM103.571 13.6056C103.197 13.6056 102.894 13.3022 102.894 12.9288C102.894 12.5554 103.197 12.252 103.571 12.252C103.944 12.252 104.248 12.5554 104.248 12.9288C104.248 13.3022 103.944 13.6056 103.571 13.6056ZM104.621 13.6522C104.621 13.2788 104.924 12.9755 105.298 12.9755C105.671 12.9755 105.975 13.2788 105.975 13.6522C105.975 14.0256 105.671 14.329 105.298 14.329C104.924 14.329 104.621 14.0256 104.621 13.6522ZM101.237 18.3197C100.864 18.3197 100.56 18.0163 100.56 17.6429C100.56 17.2695 100.864 16.9661 101.237 16.9661C101.61 16.9661 101.914 17.2695 101.914 17.6429C101.914 18.0163 101.61 18.3197 101.237 18.3197ZM103.057 18.8098C102.684 18.8098 102.381 18.5064 102.381 18.133C102.381 17.7596 102.684 17.4562 103.057 17.4562C103.431 17.4562 103.734 17.7596 103.734 18.133C103.734 18.5064 103.431 18.8098 103.057 18.8098ZM104.878 18.5997C104.504 18.5997 104.201 18.2963 104.201 17.9229C104.201 17.5495 104.504 17.2462 104.878 17.2462C105.251 17.2462 105.554 17.5495 105.554 17.9229C105.554 18.2963 105.251 18.5997 104.878 18.5997ZM106.278 17.4795C105.904 17.4795 105.601 17.1762 105.601 16.8028C105.601 16.4294 105.904 16.126 106.278 16.126C106.651 16.126 106.955 16.4294 106.955 16.8028C106.955 17.1762 106.651 17.4795 106.278 17.4795ZM106.441 15.6592C106.068 15.6592 105.764 15.3558 105.764 14.9825C105.764 14.6091 106.068 14.3057 106.441 14.3057C106.815 14.3057 107.118 14.6091 107.118 14.9825C107.118 15.3558 106.815 15.6592 106.441 15.6592Z" fill="white"/>
</g>
<defs>
<clipPath id="clip0_76_46">
<rect width="140" height="19.6033" fill="white"/>
</clipPath>
</defs>
</svg>
